<?xml version="1.0" standalone="no"?>
<!DOCTYPE svg PUBLIC "-//W3C//DTD SVG 1.1//EN" "http://www.w3.org/Graphics/SVG/1.1/DTD/svg11.dtd" >
<!--
2013-9-30: Created.
-->
<svg>
<metadata>
Created by iconfont
</metadata>
<defs>

<font id="iconfont" horiz-adv-x="1024" >
  <font-face
    font-family="iconfont"
    font-weight="500"
    font-stretch="normal"
    units-per-em="1024"
    ascent="896"
    descent="-128"
  />
    <missing-glyph />
    
    <glyph glyph-name="pinglun1" unicode="&#58923;" d="M527.969717 754.254831c-245.485017 0-444.48942-171.553191-444.48942-383.180076 0-307.157635 275.893584-364.091322 444.48942-488.282832 179.548282 150.471037 444.494537 176.74647 444.494537 488.282832C972.464253 582.700617 773.455757 754.254831 527.969717 754.254831L527.969717 754.254831zM319.169203 271.138672c-50.018184 0-90.559529 40.547485-90.559529 90.560552 0 50.018184 40.541345 90.560552 90.559529 90.560552 50.015114 0 90.561575-40.542368 90.561575-90.560552C409.730779 311.686157 369.184317 271.138672 319.169203 271.138672L319.169203 271.138672zM543.911804 271.138672c-50.018184 0-90.560552 40.547485-90.560552 90.560552 0 50.018184 40.542368 90.560552 90.560552 90.560552 50.013067 0 90.560552-40.542368 90.560552-90.560552C634.472356 311.686157 593.924871 271.138672 543.911804 271.138672L543.911804 271.138672zM759.278873 271.138672c-50.018184 0-90.560552 40.547485-90.560552 90.560552 0 50.018184 40.547485 90.560552 90.560552 90.560552 50.018184 0 90.561575-40.542368 90.561575-90.560552C849.840448 311.686157 809.297057 271.138672 759.278873 271.138672L759.278873 271.138672z"  horiz-adv-x="1024" />

    
    <glyph glyph-name="qianbi" unicode="&#58889;" d="M104.88 76.16l537.744 537.92 179.248-179.328L284.128-103.184 104.88 76.16zM821.84 793.392c24.8 24.8 64.912 24.8 89.664 0l89.616-89.664c24.688-24.768 24.688-64.912 0-89.664l-134.432-134.448L687.424 658.912 821.84 793.392zM0-207.664l59.664 239.008 179.328-179.408L0-207.664z"  horiz-adv-x="1024" />

    
    <glyph glyph-name="fangdajing" unicode="&#58886;" d="M462.204897 117.987461c-178.729637 0-324.266291 145.469116-324.335876 324.283688 0.069585 178.89746 145.606239 324.468906 324.403414 324.503698 178.864714 0 324.403414-145.538701 324.470953-324.43616C786.743388 263.491369 641.204687 117.987461 462.204897 117.987461L462.204897 117.987461zM462.272435 732.518648c-159.933549-0.034792-290.077631-130.227993-290.14517-290.2475 0.067538-159.918199 130.210597-290.010093 290.077631-290.010093 160.053276 0 290.280246 130.125663 290.280246 290.077631C752.417605 602.323401 622.258173 732.518648 462.272435 732.518648L462.272435 732.518648zM270.230608 442.43897l-34.273595 0c0 124.797307 101.586676 226.334865 226.316445 226.334865l0-34.258245C356.406293 634.516614 270.230608 548.340929 270.230608 442.43897L270.230608 442.43897zM869.24745 5.083018c-4.348028 0-8.763594 1.657756-12.111852 5.006014L666.361647 200.847633c-6.700609 6.681166-6.700609 17.526165 0 24.224728 6.698562 6.681166 17.526165 6.681166 24.224728 0l190.773951-190.756555c6.681166-6.698562 6.681166-17.526165 0-24.226774C878.010021 6.740774 873.66404 5.083018 869.24745 5.083018L869.24745 5.083018z"  horiz-adv-x="1024" />

    
    <glyph glyph-name="huoyan" unicode="&#59098;" d="M848.600034 288.887381c-114.626162 249.029327-40.663531 328.88555-39.902011 329.749425 1.263059 1.266129 1.446274 3.323462 0.468785 4.914056-1.046066 1.522016-3.026633 2.136146-4.755406 1.41045-1.650984-0.646883-161.194544-67.306496-141.112524-215.081297-43.799683 39.442438-248.220724 241.840947-123.13492 479.872246 0.757426 1.450368 0.53941 3.256931-0.616176 4.490307-1.07882 1.258965-2.920184 1.656101-4.360316 0.975442-2.735945-1.092126-66.505058-28.455669-117.32833-97.533928-46.895917-63.620698-90.545139-176.151657-31.787319-350.278735 21.371691-81.912532-18.924386-148.350035-40.557082-176.548794 5.338828 19.44742 12.005199 52.375995 10.888508 90.151073-1.723656 55.309485-21.620413 131.729656-106.616896 181.176256-1.30093 0.759473-2.997973 0.692942-4.254891-0.249746-1.333684-0.976465-1.873094-2.533282-1.485169-4.121829 0.255887-1.44525 32.087219-146.949821-23.712546-214.256317-48.158976-58.125267-95.340463-159.196578-69.819307-252.860469 21.410586-78.299406 88.271838-138.081798 198.754676-177.602025 28.327726-8.745198 55.471206-15.393144 85.428421-21.004237 1.947813-0.433985 3.859801 0.759473 4.465742 2.605954 0.53941 2.018437-0.361313 4.07577-2.162758 4.880279-56.768042 24.678776-115.270998 76.055788-71.806015 180.45056 41.419933 89.978093 34.034008 136.346883 25.704371 156.241593 21.410586-12.074801 63.907292-43.491595 53.313566-98.650619-0.288641-1.627442 0.433985-3.323462 1.835222-4.116712 1.446274-0.868993 3.214966-0.758449 4.471883 0.289664 1.368484 1.049137 129.184091 106.531942 71.075201 235.789728 28.629672-16.59172 104.576964-74.501018 59.772156-207.416967-14.926406-57.189744 25.69823-98.255529 27.39425-100.023197 1.368484-1.305024 3.386922-1.556817 4.965233-0.473903 1.518946 0.942688 2.130004 2.934513 1.446274 4.69604-1.335731 3.580372-31.581586 85.388502 34.100539 130.57407-3.497465-21.009355-9.014391-72.945224 14.525175-101.28728 21.115804-25.521156 41.525359-67.317755 35.279666-108.159384-4.359293-28.706439-21.303113-52.917453-50.499831-71.902228-1.657125-1.182198-2.264089-3.212918-1.397144-5.058376 0.790179-1.84034 2.920184-2.642802 4.793277-2.057332 72.123315 23.959221 166.71147 71.461079 207.953306 162.12495C890.486706 117.510577 886.632022 197.611429 848.600034 288.887381L848.600034 288.887381 848.600034 288.887381zM848.600034 288.887381"  horiz-adv-x="1024" />

    
    <glyph glyph-name="xiewenzhang" unicode="&#58896;" d="M785.066667 896 48.761905 896l0-1024 926.47619 0L975.238095 749.714286 785.066667 896zM146.285714-30.47619 146.285714 798.47619l604.647619 0L877.714286 700.952381l0-731.428571L146.285714-30.47619zM243.809524 457.142857l536.380952 0 0-97.52381-536.380952 0 0 97.52381ZM243.809524 164.571429l536.380952 0 0-97.52381-536.380952 0 0 97.52381ZM243.809524 310.857143l536.380952 0 0-97.52381-536.380952 0 0 97.52381ZM711.92381 739.961905 697.295238 593.67619 833.828571 637.561905Z"  horiz-adv-x="1024" />

    
    <glyph glyph-name="wodeliquan" unicode="&#58966;" d="M978.398 483.942c6.554 4.369 10.923 11.469 10.923 19.115v188.962h-954.095v-189.508c0-7.646 3.823-14.746 10.377-19.115 34.406-22.938 56.798-59.529 56.798-101.035s-22.391-78.097-56.798-101.035c-6.554-4.369-10.377-11.469-10.377-19.115v-187.324h954.095v186.778c0 7.646-3.823 14.746-10.923 19.115-34.953 22.938-57.344 59.529-57.344 101.581 0 42.052 22.938 79.189 57.344 101.581v0zM238.387 144.794h-68.267v68.267h68.267c0 0 0-68.267 0-68.267zM238.387 281.327h-68.267v68.267h68.267c0 0 0-68.267 0-68.267zM238.387 417.314h-68.267v68.267h68.267c0 0 0-68.267 0-68.267zM238.387 553.847h-68.267v68.267h68.267c0 0 0-68.267 0-68.267zM749.022 451.174v-67.721h-135.441v-68.813h135.441v-67.721h-135.441v-73.182h-67.721v73.182h-135.441v67.721h135.441v68.813h-135.441v67.721h85.197l-97.758 97.758 48.060 48.060 133.803-133.803 134.349 134.349 48.060-48.060-98.304-98.85 85.197 0.546z"  horiz-adv-x="1024" />

    
    <glyph glyph-name="huidaodingbu" unicode="&#59146;" d="M523.563106 821.197961c-240.880983 0-436.225842-195.24253-436.225842-436.225842s195.24253-436.225842 436.225842-436.225842 436.225842 195.24253 436.225842 436.225842S764.546418 821.197961 523.563106 821.197961zM681.558109 315.184171c-3.172179-3.172179-7.367643-4.809433-11.563106-4.809433s-8.390926 1.637254-11.563106 4.809433L539.935645 433.680424l0-272.398121c0-9.004897-7.367643-16.372539-16.372539-16.372539s-16.372539 7.367643-16.372539 16.372539L507.190567 433.680424 388.796642 315.184171c-6.344359-6.344359-16.781853-6.344359-23.126212 0-6.344359 6.344359-6.344359 16.781853 0 23.126212L503.711402 476.453682c5.321075 5.321075 12.381733 8.18627 19.851704 8.18627s14.530629-2.967523 19.851704-8.18627L681.558109 338.412711C687.902468 331.966024 687.902468 321.630858 681.558109 315.184171zM707.24253 521.887479 339.98601 521.887479c-9.004897 0-16.372539 7.367643-16.372539 16.372539s7.367643 16.372539 16.372539 16.372539l367.25652 0c9.004897 0 16.372539-7.367643 16.372539-16.372539S716.349755 521.887479 707.24253 521.887479z"  horiz-adv-x="1024" />

    
    <glyph glyph-name="dvt-draft" unicode="&#58924;" d="M503.963 9.954c-100.921 0-201.84-0.003-302.761 0.002-35.453 0.002-62.212 26.699-62.223 62.155-0.025 91.581-0.014 183.164 0.011 274.745 0.001 3.577-1.088 7.472 3.577 9.643 1.642 0.764 1.425 3.53 1.849 5.429 12.599 56.571 25.232 113.135 37.643 169.746 1.040 4.742 2.842 6.566 7.766 6.42 10.804-0.319 21.623-0.106 32.436-0.095 7.406 0.007 7.426 0.018 7.427 7.312 0.005 61.6 0.003 123.201 0.003 184.801 0 10.38 0.001 10.381 10.415 10.381 122.546 0 245.091-0.038 367.637 0.118 5.916 0.007 10.069-1.77 14.143-5.985 30.961-32.034 62.14-63.859 93.219-95.778 22.281-22.882 44.521-45.804 66.761-68.722 2.622-2.702 4.898-5.795 7.762-8.195 6.131-5.137 10.037-10.988 8.529-19.446-0.618-3.462 1.421-4.58 4.657-4.51 5.404 0.116 10.821-0.169 16.215 0.081 4.064 0.188 5.772-1.477 6.628-5.392 7.413-33.91 14.995-67.783 22.526-101.668 5.257-23.654 10.506-47.31 15.79-70.959 0.282-1.26 0.519-3.206 1.331-3.559 4.719-2.050 3.554-6.076 3.555-9.651 0.026-91.581-0.361-183.166 0.222-274.743 0.209-33.001-27.175-62.385-62.363-62.256-100.918 0.37-201.84 0.13-302.758 0.13zM271.92 527.23c0-54.87-0.002-109.741 0.002-164.611 0.001-7.228 0.017-7.238 7.394-7.241 25.715-0.005 51.431-0.092 77.146 0.078 4.602 0.031 6.388-1.263 6.278-6.096-0.196-8.66-0.122-17.319 0.574-26.001 2.831-35.353 16.922-65.641 42.349-89.941 33.362-31.887 73.581-45.628 119.414-38.211 54.31 8.789 91.281 40.091 111.503 91.105 6.407 16.164 8.562 33.19 8.762 50.526 0.066 5.834-2.574 13.274 1.196 17.092 3.98 4.032 11.531 1.343 17.498 1.375 28.499 0.159 56.999 0.067 85.5 0.075 6.886 0.001 6.912 0.017 6.913 6.679 0.007 49.137 0.007 98.275 0 147.413-0.001 6.702-0.025 6.719-6.871 6.72-52.578 0.005-105.154 0.001-157.732 0.005-7.493 0.001-7.505 0.015-7.505 7.67-0.004 55.69-0.001 111.378-0.004 167.068 0 7.311-0.013 7.326-7.307 7.327-99.258 0.003-198.516 0.003-297.775-0.001-7.311 0-7.328-0.020-7.33-7.406-0.004-54.541-0.002-109.083-0.002-163.626zM503.902 51.632c28.663 0 57.328 0 85.991 0 72.233 0 144.466-0.009 216.699 0.011 11.989 0.003 20.571 7.741 20.582 19.012 0.080 79.276 0.031 158.551 0.099 237.827 0.003 3.668-0.992 5.284-4.989 5.276-43.897-0.101-87.793-0.095-131.69-0.007-3.756 0.007-5.145-1.491-5.632-5.077-3.198-23.495-10.577-45.685-22.915-65.897-34.411-56.359-84.775-87.138-150.717-90.973-34.433-2.003-67.113 6.073-97.019 23.475-51.293 29.847-81.66 74.365-91.267 132.917-0.669 4.079-1.978 5.577-6.134 5.567-43.568-0.106-87.138-0.113-130.706 0.012-4.295 0.012-5.653-1.35-5.648-5.639 0.1-78.784 0.084-157.568 0.051-236.354-0.002-4.42 1.058-8.415 3.641-11.994 4.553-6.313 10.924-8.208 18.439-8.203 100.402 0.074 200.807 0.049 301.212 0.048zM626.795 669.574c-1.152-1.868-0.758-3.366-0.759-4.783-0.027-33.553 0.078-67.107-0.126-100.659-0.031-5.007 1.483-6.389 6.416-6.359 32.242 0.198 64.487 0.092 96.731 0.134 1.525 0.002 3.26-0.626 5.092 1.28-35.702 36.711-71.37 73.386-107.354 110.387zM229.691 425.329c0 21.44 0.013 42.88-0.022 64.318-0.003 1.895 0.55 4.075-1.327 5.473-3.955 2.946-11.58 0.033-12.69-4.864-2.677-11.803-5.289-23.62-7.922-35.435-6.939-31.129-13.882-62.255-20.806-93.387-1.339-6.017-1.302-6.045 4.81-6.053 10.638-0.015 21.281 0.201 31.91-0.095 4.785-0.133 6.177 1.565 6.134 6.217-0.193 21.274-0.085 42.55-0.085 63.826zM798.749 461.107c-0.214-0.091-0.427-0.182-0.641-0.273 0-33.409 0.058-66.818-0.075-100.226-0.016-4.141 1.437-5.519 5.425-5.284 4.244 0.25 8.513 0.042 12.772 0.058 6.006 0.025 6.074 0.084 4.73 6.153-3.964 17.899-7.949 35.792-11.94 53.684-3.413 15.298-6.847 30.591-10.271 45.888z"  horiz-adv-x="1024" />

    
    <glyph glyph-name="photo" unicode="&#58894;" d="M512 512m-192 0a192 192 0 1 1 384 0 192 192 0 1 1-384 0ZM512 303.36a320 320 0 0 1-320-320h640a320 320 0 0 1-320 320zM890.88 768a5.12 5.12 0 0 0 5.12-5.12v-757.76a5.12 5.12 0 0 0-5.12-5.12H133.12a5.12 5.12 0 0 0-5.12 5.12V762.88A5.12 5.12 0 0 0 133.12 768h757.76m0 64H133.12A69.12 69.12 0 0 1 64 762.88v-757.76A69.12 69.12 0 0 1 133.12-64h757.76A69.12 69.12 0 0 1 960 5.12V762.88A69.12 69.12 0 0 1 890.88 832z"  horiz-adv-x="1024" />

    
    <glyph glyph-name="wenzhang" unicode="&#58881;" d="M678.9 797.4h-461.5c-33.9 0-61.4-26.2-61.4-58.5v-715.7c0-32.2 27.5-58.5 61.4-58.5h584.4c33.9 0 61.4 26.2 61.4 58.5l0 568.3-184.3 205.9zM781.9 592.6h-123.5v138l123.5-138zM790 27.8h-559.6c-5.7 0-10.1 3.8-10.1 7.2v692.9c0 3.4 4.3 7.2 10.1 7.2h380.3v-151c0-27.8 22.6-50.3 50.3-50.3h139v-498.8c0-3.4-4.3-7.2-10-7.2v0zM557 544c0-17.7-14.3-32-32-32h-173c-17.7 0-32 14.3-32 32v0c0 17.7 14.3 32 32 32h173c17.6 0 32-14.3 32-32v0zM707.5 385c0-17.7-14.3-32-32-32h-321c-17.7 0-32 14.3-32 32v0c0 17.7 14.3 32 32 32h321c17.6 0 32-14.3 32-32v0zM707.5 226c0-17.7-14.3-32-32-32h-321c-17.7 0-32 14.3-32 32v0c0 17.7 14.3 32 32 32h321c17.6 0 32-14.4 32-32v0z"  horiz-adv-x="1024" />

    
    <glyph glyph-name="lingdang" unicode="&#59584;" d="M512-64c49.6 0 88 38.4 88 88H424c0-49.6 38.4-88 88-88z m288.8 286.4V451.2c0 137.6-97.6 252.8-224.8 283.2v28.8c0 32-17.6 60.8-48 67.2-44 10.4-80-23.2-80-66.4v-30.4C320.8 704 223.2 588.8 223.2 451.2v-228.8L136 132.8v-44.8h752v44.8l-87.2 89.6z"  horiz-adv-x="1024" />

    
    <glyph glyph-name="zuanshi" unicode="&#59017;" d="M1001.472 594.944L783.36 812.032c-8.192 8.192-18.432 12.288-29.696 12.288H270.336c-11.264 0-21.504-4.096-29.696-12.288L22.528 594.944c-8.192-8.192-12.288-18.432-12.288-29.696v-86.016c0-10.24 4.096-20.48 10.24-27.648l460.8-515.072c16.384-18.432 45.056-18.432 61.44 0l460.8 515.072c7.168 7.168 10.24 17.408 10.24 27.648v86.016c0 11.264-4.096 21.504-12.288 29.696z m-70.656-128L512-2.048 93.184 466.944v99.328L295.936 768h433.152L931.84 566.272v-99.328h-1.024zM295.936 769.024L93.184 567.296v-99.328L512-2.048l418.816 468.992v99.328L728.064 769.024H295.936zM512 154.624L200.704 570.368h184.32l-14.336-38.912L512 338.944l141.312 191.488-14.336 38.912h184.32L512 154.624zM653.312 531.456L512 338.944 370.688 531.456l14.336 38.912h-184.32L512 155.648v-1.024l311.296 414.72h-184.32l14.336-37.888z"  horiz-adv-x="1024" />

    
    <glyph glyph-name="unie61d" unicode="&#58887;" d="M-56.57 948.89v0 0zM743.314 420.4q-16.558 3.318-21.501 9.921t-1.659 12.145l3.318 5.508q1.094 1.094 2.224 3.318t4.414 9.391 4.978 14.334 2.753 17.652-0.564 19.877-6.638 20.407-13.805 19.877q-15.463 15.463-40.284 19.877t-49.641 0.564-46.885-9.921-36.4-11.581l-14.334-6.638q-11.050-3.318-18.218-4.414t-11.050 0.564-6.073 3.318-1.659 7.732 1.094 10.485 2.753 13.805 3.318 14.899q0 13.239-1.659 24.819t-7.167 25.914-15.994 23.161-26.48 14.334-41.379 3.318-57.372-13.239q-38.624-13.239-78.342-39.154t-68.951-54.052-53.523-54.618-37.53-43.038l-12.145-17.652q-36.4-47.451-54.052-94.901t-16.558-71.707v-23.161q6.638-52.958 32.551-94.901t61.785-67.857 84.415-44.132 93.242-26.48 94.337-11.581q81.662-6.638 169.36 12.675t163.289 66.763 106.481 113.649q18.747 38.624 19.313 72.836t-11.581 55.712-31.457 38.060-36.4 24.29-30.327 9.921zM406.816 77.265q-119.156-5.508-202.443 46.356t-83.285 131.301q0 78.342 82.756 135.15t203.007 62.35 203.007-39.718 82.756-123.569q0-79.438-84.415-142.882t-201.348-68.951zM374.83 382.906q-31.986-3.318-57.372-14.899t-39.718-26.48-24.29-31.986-13.805-33.646-4.978-30.327-1.094-21.501l1.094-8.827v-4.414q0-3.318 2.224-13.239t6.073-18.218 12.675-18.218 20.972-16.558q72.836-35.306 135.714-21.501t101.503 63.443q15.463 18.747 20.407 46.356t-2.224 55.712-24.819 51.299-52.394 35.871-80.003 7.167zM335.11 174.355q-6.638-1.094-12.675-0.564t-11.050 2.224-9.921 3.847-8.261 6.073-6.073 7.732-4.414 8.827-1.659 10.485q0 12.145 6.638 23.725t18.218 19.877 25.914 9.391q9.921 1.094 19.313-0.564t15.994-5.508 11.581-8.827 7.167-11.581 2.224-14.334q0-12.145-7.167-23.161t-19.313-18.747-26.48-8.827zM428.882 253.793q-7.732-5.508-15.994-4.978t-11.581 7.167l-2.224 4.414q-1.094 2.224-1.094 4.414v4.414q0 3.318 1.094 5.508l2.224 4.414q1.094 2.224 3.318 3.318l3.318 4.414q8.827 6.638 17.088 5.508t11.581-8.827q3.318-4.414 2.753-9.921t-3.318-10.485-7.167-9.391zM820.562 484.409q6.638 0 12.145 3.318t8.827 8.261 4.414 10.485q1.094 1.094 1.094 3.318 13.239 125.794-88.265 143.446-29.798 5.508-55.182 1.094-7.732 0-13.239-3.847t-9.391-9.921-3.847-12.675q0-11.050 7.732-18.747t18.747-7.732q86.075 19.877 92.677-55.182 2.224-18.747-2.224-35.306 0-11.050 7.732-18.747t18.747-7.732zM801.815 795.522q-48.545 11.050-130.207-4.414-1.094 0-2.224-1.094l-1.094-2.224-1.094-1.094q-12.145-3.318-19.877-13.805t-7.732-22.63q0-16.558 11.050-27.574t26.48-11.050h3.318q1.094 0 4.978 1.094t8.261 1.659 9.391 2.224 8.827 3.318 14.899 1.659 27.044-1.659 35.306-8.261 38.624-16.558 38.624-27.574 33.646-40.813q28.704-65.104 11.050-125.794 0-1.094-0.564-2.224t-1.659-5.508-2.224-8.261-2.224-9.921-1.094-10.485q0-9.921 5.508-16.558t13.805-9.391 19.313-2.753q30.893 0 36.4 37.53 13.239 43.038 14.899 82.192t-5.508 68.951-21.501 55.712-33.116 44.132-41.943 33.116-44.697 23.725-44.697 14.334z"  horiz-adv-x="1024" />

    
    <glyph glyph-name="sixin" unicode="&#59064;" d="M809.890909 11.636364H214.109091c-93.090909 0-167.563636 74.472727-167.563636 165.236363V584.145455C46.545455 679.563636 121.018182 756.363636 214.109091 756.363636h595.781818c93.090909 0 167.563636-76.8 167.563636-172.218181v-407.272728c0-90.763636-74.472727-165.236364-167.563636-165.236363m-27.927273 528.290909c-6.981818 13.963636-20.945455 20.945455-34.909091 20.945454-6.981818 0-13.963636-2.327273-20.945454-4.654545l-221.090909-134.981818-200.145455 134.981818c-6.981818 4.654545-16.290909 4.654545-23.272727 4.654545-16.290909 0-32.581818-6.981818-39.563636-20.945454-13.963636-18.618182-4.654545-44.218182 16.290909-55.854546l218.763636-141.963636c6.981818-4.654545 13.963636-4.654545 20.945455-4.654546h13.963636c6.981818 0 13.963636 2.327273 20.945455 4.654546l232.727272 141.963636c20.945455 11.636364 27.927273 34.909091 16.290909 55.854546"  horiz-adv-x="1024" />

    
    <glyph glyph-name="guanlizhongxin" unicode="&#58920;" d="M913.106 625.793L753.792 785.108c-21.993 21.997-57.646 21.997-79.648 0L514.832 625.793c-21.995-21.998-21.995-57.648 0-79.646l159.312-159.316c22.003-21.994 57.655-21.994 79.648 0l159.312 159.316c22.003 21.995 22.003 57.649 0.002 79.646z m-199.141-199.14l-159.31 159.319 159.31 159.315 159.323-159.315-159.323-159.319zM376.02 754.944H150.718c-31.121 0-56.324-25.203-56.324-56.324v-225.298c0-31.121 25.204-56.329 56.324-56.329H376.02c31.121 0 56.324 25.208 56.324 56.329V698.62c0 31.122-25.203 56.324-56.324 56.324z m0-450.598H150.718c-31.121 0-56.324-25.208-56.324-56.329v-225.298c0-31.121 25.204-56.324 56.324-56.324H376.02c31.121 0 56.324 25.203 56.324 56.324V248.016c0 31.122-25.203 56.33-56.324 56.33z m450.601 0H601.32c-31.121 0-56.324-25.208-56.324-56.329v-225.298c0-31.121 25.203-56.324 56.324-56.324h225.302c31.116 0 56.324 25.203 56.324 56.324V248.016c0 31.122-25.204 56.33-56.325 56.33z"  horiz-adv-x="1024" />

    
    <glyph glyph-name="ganxie" unicode="&#59157;" d="M1013.76 620.544c-26.112 130.56-139.776 225.28-273.408 227.328-16.896 0-33.28-1.536-49.664-4.608-69.632-11.264-133.12-47.616-178.176-102.4C444.928 820.736 355.328 855.552 247.808 844.288c-107.52-11.264-204.8-98.304-232.448-206.848-18.944-73.216-10.752-148.48 24.576-230.912 35.328-80.896 87.552-152.576 153.088-210.944 54.272-50.176 111.616-98.304 166.4-144.896l32.768-27.648c23.552-20.48 48.64-39.936 72.704-58.88l3.072-2.56 30.208-23.552 14.336-11.776 38.912 31.232 50.688 40.448 30.72 25.088c76.8 59.904 150.528 123.904 219.648 192.512 57.344 56.32 103.424 122.88 135.68 196.608 30.72 74.24 39.424 142.336 25.6 208.384z m0 0"  horiz-adv-x="1024" />

    
    <glyph glyph-name="xiezuo" unicode="&#58915;" d="M108.569321-96.870858c-25.75021-23.747415-72.215032-72.272255-48.524839 39.712546C101.645376 125.55373 560.628555 828.534451 947.453926 896 1055.948142 896 745.915619 636.380665 745.915619 636.380665s106.548645-13.218441 176.531992 60.656049c-41.94423-218.876781-240.335289-218.075664-291.377927-235.528583 59.912154-8.812294 104.431405-35.306398 197.13216-8.240067-22.602962-62.029394-111.870355-138.421682-432.717966-213.95563-141.969489-50.985415-261.22157-312.435876-286.914557-336.183292z"  horiz-adv-x="1024" />

    
    <glyph glyph-name="iconku-zhuanqu-" unicode="&#58973;" d="M294.4 746.752h435.2a145.066667 145.066667 0 0 0 145.066667-145.066667v-253.866666a145.066667 145.066667 0 0 0-145.066667-145.066667h-142.506667L366.933333 21.248v181.504h-72.533333a145.066667 145.066667 0 0 0-145.066667 145.066667v253.866666a145.066667 145.066667 0 0 0 145.066667 145.066667z"  horiz-adv-x="1024" />

    
    <glyph glyph-name="feiji1" unicode="&#58938;" d="M859.13088 76.16512l-410.24 129.60256 410.24 486.07744-536.46336-486.07744-315.55584 129.61792L1016.88832 886.26176l-157.75744-810.09664z m-410.24-194.42688v226.84672l126.21824-64.80384-126.21824-162.04288z"  horiz-adv-x="1024" />

    
    <glyph glyph-name="shoucang" unicode="&#58882;" d="M722.938 8.531c-8.438 0-18.282 2.813-26.72 7.032l-182.812 91.406-184.218-91.407c-18.282-9.843-42.188-8.437-59.063 4.22-16.875 12.655-26.719 35.155-22.5 56.25l37.969 196.874-144.844 135c-15.469 15.469-21.094 39.375-15.469 59.063 7.031 21.094 23.906 36.562 46.406 39.375l201.094 36.562 90 182.813c9.844 19.687 29.531 32.344 50.625 32.344s42.188-12.657 50.625-32.344l90-182.813 201.094-35.156c21.094-2.813 39.375-18.281 45-39.375 7.031-21.094 1.406-43.594-14.063-59.063L741.22 272.907l36.562-196.875c4.219-22.5-5.625-43.593-22.5-56.25-8.437-7.031-19.687-11.25-32.343-11.25z"  horiz-adv-x="1024" />

    
    <glyph glyph-name="QQ" unicode="&#58949;" d="M970.78731 199.326897c-7.238621 98.868966-74.081103 181.742345-112.745931 224.573793 5.367172 12.499862 18.432 84.674207-31.991172 133.896827 0.070621 1.200552 0.070621 2.365793 0.070621 3.531035 0 194.206897-139.29931 334.035862-314.120828 334.671448-174.786207-0.635586-314.120828-140.464552-314.120828-334.706759 0-1.129931 0-2.295172 0.070621-3.495724-50.423172-49.222621-37.323034-121.396966-31.991172-133.861517C127.329103 381.069241 60.45131 298.195862 53.21269 199.326897c-1.306483-26.023724 2.718897-63.911724 15.536551-80.719449 15.571862-20.51531 58.368 4.13131 88.982069 69.702621 8.509793-30.366897 28.177655-76.76469 72.66869-135.591724-74.434207-16.878345-95.691034-89.758897-70.62069-129.588966 17.655172-28.036414 58.085517-51.129379 127.752828-51.129379 123.974621 0 178.705655 33.050483 203.140414 56.108138 5.014069 5.014069 12.182069 7.415172 21.327448 7.450483 9.145379 0 16.34869-2.471724 21.292138-7.450483 24.434759-23.057655 79.201103-56.108138 203.140414-56.108138 69.702621 0 110.132966 23.092966 127.788138 51.129379 25.070345 39.830069 3.813517 112.710621-70.62069 129.588966 44.491034 58.827034 64.158897 105.224828 72.66869 135.591724 30.614069-65.57131 73.410207-90.217931 89.017379-69.702621 12.782345 16.843034 16.843034 54.731034 15.536552 80.719449z"  horiz-adv-x="1024" />

    
    <glyph glyph-name="xiangfa" unicode="&#58947;" d="M636.136727 167.377455l11.496728 6.74909a250.181818 250.181818 0 0 1 122.97309 216.296728C770.606545 528.290909 660.48 640 524.939636 640 389.352727 640 279.272727 528.290909 279.272727 390.423273a250.181818 250.181818 0 0 1 122.973091-216.296728l11.496727-6.74909v-44.404364l222.394182-0.465455v44.869819zM232.727273 390.423273C232.727273 553.890909 363.473455 686.545455 524.939636 686.545455c161.466182 0 292.212364-132.654545 292.212364-296.122182a296.866909 296.866909 0 0 0-134.516364-249.297455v-65.256727l-315.438545 0.651636v64.605091A296.866909 296.866909 0 0 0 232.727273 390.423273zM403.409455 49.338182c0-11.962182 9.681455-21.643636 21.643636-21.643637h199.726545a21.690182 21.690182 0 0 1 21.690182 21.643637v21.690182H403.409455v-21.690182z m-23.272728 68.235636h289.605818a23.272727 23.272727 0 0 0 23.272728-23.272727v-44.962909c0-37.655273-30.533818-68.189091-68.235637-68.189091h-199.68c-37.701818 0-68.235636 30.533818-68.235636 68.189091v44.962909a23.272727 23.272727 0 0 0 23.272727 23.272727zM646.469818-74.612364v21.643637a21.690182 21.690182 0 0 1-21.690182 21.690182h-199.68a21.690182 21.690182 0 0 1-21.690181-21.690182v-21.643637h243.060363z m-221.416727 89.832728h199.726545c37.701818 0 68.235636-30.533818 68.235637-68.189091v-44.916364a23.272727 23.272727 0 0 0-23.272728-23.272727H380.136727a23.272727 23.272727 0 0 0-23.272727 23.272727v44.916364c0 37.701818 30.533818 68.235636 68.189091 68.235636zM616.261818 427.799273l42.961455-17.966546c-22.853818-54.644364-63.813818-83.456-112.919273-90.205091 2.56-55.808 2.932364-129.815273 1.256727-222.533818l-46.545454 0.837818c1.722182 93.137455 1.210182 167.191273-1.303273 221.556364-66.606545 8.564364-136.936727 57.157818-125.905455 117.201455 14.894545 81.361455 138.472727 71.586909 160.67491-11.869091 3.677091-13.777455 6.609455-33.233455 8.843636-58.600728 32.116364 5.538909 57.576727 24.855273 72.936727 61.579637z m-126.743273-14.941091c-10.426182 39.191273-64.791273 43.473455-69.957818 15.453091-4.235636-23.272727 36.165818-52.363636 76.939637-61.067637a297.704727 297.704727 0 0 1-6.981819 45.614546zM488.727273 896h46.545454v-143.732364H488.727273V896z m252.043636-60.555636l40.308364-23.272728-71.866182-124.462545-40.308364 23.272727 71.866182 124.462546z m190.696727-188.741819l23.272728-40.308363-124.462546-71.866182-23.272727 40.308364 124.462545 71.866181z m-862.208-40.308363l23.272728 40.308363L216.994909 574.836364l-23.272727-40.308364-124.462546 71.866182z m173.661091 205.730909l40.308364 23.272727L355.141818 711.028364l-40.308363-23.272728L242.967273 812.171636z"  horiz-adv-x="1024" />

    
    <glyph glyph-name="shenglve" unicode="&#59393;" d="M36.352 382.464c0-262.656 212.992-476.16 475.648-476.16 262.656 0 476.16 212.992 476.16 475.648v0.512c0 262.656-212.992 475.648-475.648 476.16-263.168-0.512-476.16-213.504-476.16-476.16zM285.696 327.168c-30.208 0-55.296 24.576-55.296 55.296 0 30.208 24.576 55.296 55.296 55.296s55.296-24.576 55.296-55.296c0-30.72-24.576-55.296-55.296-55.296z m226.816 0c-30.208 0-55.296 24.576-55.296 55.296 0 30.208 24.576 55.296 55.296 55.296 30.208 0 55.296-24.576 55.296-55.296-0.512-30.72-25.088-55.296-55.296-55.296z m226.304 0c-30.208 0-55.296 24.576-55.296 55.296 0 30.208 24.576 55.296 55.296 55.296 30.208 0 55.296-24.576 55.296-55.296-0.512-30.72-25.088-55.296-55.296-55.296z"  horiz-adv-x="1024" />

    
    <glyph glyph-name="jubaoReport" unicode="&#59559;" d="M614.4 640L597.333333 725.333333H213.333333v-725.333333h85.333334v298.666667h238.933333l17.066667-85.333334h298.666666V640z"  horiz-adv-x="1024" />

    
    <glyph glyph-name="open" unicode="&#58883;" d="M507.584 159.93600000000004a32.896 32.896 0 0 0-23.36 9.664L110.912 542.912a33.024 33.024 0 0 0 46.72 46.656l373.312-373.248a33.024 33.024 0 0 0-23.36-56.384M507.584 159.93600000000004a32.896 32.896 0 0 0-23.36 56.32l382.144 382.08a33.024 33.024 0 0 0 46.656-46.656l-382.016-382.08a33.152 33.152 0 0 0-23.424-9.664"  horiz-adv-x="1024" />

    
    <glyph glyph-name="pinglun" unicode="&#58921;" d="M547.84 701.44c-169.984 0-307.2-120.32-307.2-268.8S378.368 163.84 547.84 163.84c19.456 0 38.912 1.536 57.344 4.608l134.656-81.408v135.68c70.144 49.152 115.2 124.928 115.2 209.408 0.512 148.992-137.216 269.312-307.2 269.312z m96.256-364.032H452.096c-10.752 0-19.456 8.704-19.456 18.944s8.704 18.944 19.456 18.944h192c10.752 0 19.456-8.704 19.456-18.944s-8.704-18.944-19.456-18.944z m38.4 115.2H413.696c-10.752 0-19.456 8.192-19.456 18.944 0 10.24 8.704 18.944 19.456 18.944h268.8c10.752 0 19.456-8.704 19.456-18.944s-8.704-18.944-19.456-18.944z"  horiz-adv-x="1077" />

    
    <glyph glyph-name="shu2" unicode="&#58880;" d="M806.7884318 686.15814285c-14.73942132 0-24.56570245-9.82628114-24.56570244-24.56570244l0-569.92430135c0-24.56570245-24.56570245-49.13140492-49.13140493-49.13140492L300.73495748 42.53673336999998c-29.47884341 0-63.870827 24.56570245-63.87082702 49.13140492l0 54.04454586c0 24.56570245 29.47884341 39.30512455 58.95768606 39.30512455l412.70380469 0c14.73942132 0 24.56570245 9.82628114 24.56570245 24.56570246L733.09132366 691.07128303c0 54.04454587-39.30512455 88.43652947-98.26281061 88.43652947L300.73495748 779.5078125C246.6904116 779.5078125 192.64586574 750.02896909 192.64586574 691.07128303l0-604.31628492c0 0 0 0 0-4.91314019 0-4.91314018 0-4.91314018 0-9.82628114 4.91314018-44.21826472 49.13140492-78.61024833 93.34966964-83.52338928 0 0 4.91314018 0 4.91314019 0 0 0 0 0 4.91314018 0l437.26950713 0c54.04454587 0 98.26281061 44.21826472 98.26281061 93.34966965L831.35413426 661.59243962C831.35413426 671.41872076 821.52785312 686.15814285 806.7884318 686.15814285zM713.43876139 135.88640302L310.56123861 135.88640302c-14.73942132 0-24.56570245-9.82628114-24.56570245-24.56570247s9.82628114-24.56570245 24.56570245-24.56570244l402.87752355 0c14.73942132 0 24.56570245 9.82628114 24.56570246 24.56570244S728.17818348 135.88640302 713.43876139 135.88640302z"  horiz-adv-x="1024" />

    
    <glyph glyph-name="zhuanlan" unicode="&#58942;" d="M123.8-37.9c-24.3 0-38.8 14.1-38.8 37.8V395.2l1.5 1.2c0.1 0.1 0.2 0.1 0.2 0.2-22.3 11.3-35.6 33.8-35.6 60.4 0 37.5 30.4 68 67.9 68 37.5 0 68-30.5 68-68 0-17.7-6.9-34.5-19.3-47.4L290.1 255l4.6 3.1 171 400.3c0.2 0.6 0.5 1 0.6 1.2l0.2 0.3c0.1 0.2 0.2 0.3 0.3 0.5-22.8 14.8-36.4 39.5-36.4 66.4 0 43.7 35.5 79.2 79.2 79.2s79.2-35.5 79.2-79.2c0-27.7-15-53.7-39.2-68 0.1-0.1 0.1-0.2 0.1-0.2 0.3-0.4 0.5-0.8 0.6-1.1l0.1-0.1 172.2-402.2 0.4 0.4 2.9 0.4 127.4 158.5c-10.1 12.4-15.4 27.1-15.4 42.5 0 37.5 30.5 68 68 68 17.9 0 34.7-7.1 47.4-20 12.7-12.9 19.6-29.9 19.6-48 0-22.6-11.9-43.8-31.9-56.8v-0.3c0-0.7-0.2-1.6-0.4-2.5l-0.1-0.3c-0.1-0.7-0.3-1.2-0.3-1.8V0c0-23.7-24.6-37.8-48.4-37.8h-768z m770.4 42.1v70.5H130.9v-70.2l763.3-0.3z m0 116.3V390c-0.2 0-0.4 0.1-0.8 0.1h-0.4c-0.5 0.1-1.2 0.2-1.8 0.2l-1.3-1.3-128.2-160.5-0.1-0.2c-8.2-12.8-22.5-20.4-38.2-20.4-1.5 0-3 0.1-4.5 0.2h-0.2c-17.5 1.6-32 12.1-38 27.6l-172.6 404-172.4-405.3-0.1-0.2c-5.3-15.3-19.3-25.7-36.5-27.3h-0.1c-1.5-0.1-3-0.2-4.5-0.2-14.9 0-27.2 6.8-35.5 19.7L134.3 389.3h-3.4v-268.7h763.3z m2.9 316.1c3.7-0.1 7.1-0.5 10.4-1.4 11.6 1 20.3 10.3 20.4 21.6 0 12.1-9.9 22-22 22s-22-9.9-22-22c-0.1-8.8 5.1-16.7 13.2-20.2z m-778 42.5c-12.1 0-22-9.9-22-22 0-11.5 9.1-21.1 20.7-21.7h0.1c0.8 0.2 1.6 0.2 2.3 0.3h0.7c0.4 0.1 0.8 0.1 1.2 0.1 0.2 0 0.5 0 0.8 0.1H123.2c10.4 2 18 10.8 18 21.2 0 12.1-9.9 22-22.1 22z m390.5 280.8c-18.3 0-33.2-14.9-33.2-33.2s14.9-33.2 33.2-33.2 33.2 14.9 33.2 33.2-14.9 33.2-33.2 33.2z"  horiz-adv-x="1024" />

    
    <glyph glyph-name="guanzhu" unicode="&#59010;" d="M577.57184 449.57184h328.15104c36.05504 0 65.28512-29.1072 65.28512-65.57184 0-36.21376-29.50656-65.57184-65.28512-65.57184h-328.15104v-328.15104c0-36.05504-29.1072-65.28512-65.57184-65.28512-36.21376 0-65.57184 29.50656-65.57184 65.28512v328.15104H118.27712c-36.05504 0-65.28512 29.1072-65.28512 65.57184 0 36.21376 29.50656 65.57184 65.28512 65.57184h328.15104V777.72288c0 36.05504 29.1072 65.28512 65.57184 65.28512 36.21376 0 65.57184-29.50656 65.57184-65.28512v-328.15104z"  horiz-adv-x="1024" />

    
    <glyph glyph-name="invite" unicode="&#59314;" d="M553.984 69.632c0 90.112 43.008 169.984 109.568 221.184-5.12 11.264-8.192 24.576-8.192 37.888 0 31.744 24.576 58.368 43.008 76.8 43.008 51.2 67.584 120.832 67.584 197.632C765.952 764.928 651.264 894.976 509.952 894.976s-256-130.048-256-291.84c0-76.8 26.624-146.432 67.584-197.632 24.576-15.36 43.008-45.056 43.008-76.8 0-29.696-13.312-56.32-35.84-71.68v-2.048c-2.048 0-4.096-2.048-7.168-2.048-13.312-9.216-29.696-13.312-47.104-13.312C163.84 201.728 71.68 143.36 17.408 69.632h2.048C6.144 50.176 0 26.624 0 2.048c0-69.632 58.368-125.952 130.048-128h503.808c-49.152 51.2-79.872 119.808-79.872 195.584z m0 0M830.464 263.168c-106.496 0-193.536-86.016-193.536-193.536s86.016-193.536 193.536-193.536S1024-36.864 1024 69.632s-87.04 193.536-193.536 193.536z m106.496-205.824h-80.896v-80.896h-51.2v80.896h-80.896v51.2h80.896V189.44h51.2v-80.896h80.896v-51.2z m0 0"  horiz-adv-x="1024" />

    
    <glyph glyph-name="yuanzhuo" unicode="&#58884;" d="M118.11 588.21V541S244 455 498 461s395 48.09 402 66 11.85 59.88 11.85 59.88-470.67-164.46-793.74 1.33zM577.51 178.15999999999997V415.42a66.67 66.67 0 0 1-66.67 66.67 66.67 66.67 0 0 1-66.67-66.67v-237.3c-124.24-8.67-216.52-40.91-216.52-79.36 0-45.1 126.92-81.66 283.49-81.66s283.49 36.56 283.49 81.66c0 38.51-92.58 70.79-217.12 79.4zM126.03 623.5a384.81 88.5 0 1 1 769.62 0 384.81 88.5 0 1 1-769.62 0ZM138.11 614.5V555a20 20 0 0 0-39.9-2v0.28c0 0.58-0.08 1.17-0.08 1.76V614.5c0 0.45 0 0.9 0.05 1.35a20 20 0 0 0 39.95-1.38zM924.07 620.5v-64.59a20 20 0 0 0-40 0V620.5a20 20 0 0 0 39.31 5.2 19.82 19.82 0 0 0 0.69-5.2zM924.07 618a43.46 43.46 0 0 1-0.69 7.75c-3.1 17.2-16.67 32.61-40.43 45.91-21.41 12-51.48 22.62-89.38 31.59C717.88 721.12 617.56 731 511.09 731s-206.8-9.87-282.49-27.79c-37.9-9-68-19.6-89.38-31.59-27.28-15.28-41.11-33.33-41.11-53.62 0-0.69 0-1.38 0.05-2.07q0.72-15.39 12.12-28.93-12.15-14.42-12.17-31c0-0.89 0-1.78 0.08-2.67v-0.28c1.27-19.15 15.05-36.19 41-50.72a251.16 251.16 0 0 1 39.58-17.3q18-6.31 40-11.88 4.81-1.23 9.8-2.41t10.2-2.34c12.72-2.81 26.08-5.4 40-7.77q17.91-3 37-5.6 19.47-2.59 40-4.65 9.89-1 20-1.86 19.64-1.68 40-2.86c3.19-0.18 6.39-0.36 9.6-0.52a69.85 69.85 0 0 1-1.22-13v-235.56c-44.34-4-85.06-11.08-119-20.87-28.07-8.09-50.44-17.72-66.47-28.64-25.64-17.46-31-35.91-31-48.32s5.38-30.85 31-48.31c16-10.92 38.4-20.56 66.47-28.65 55.29-15.93 128.45-24.7 206-24.7s150.7 8.77 206 24.7c28.08 8.09 50.44 17.73 66.48 28.65 25.64 17.46 31 35.91 31 48.31s-5.38 30.86-31 48.32c-16 10.92-38.4 20.55-66.48 28.64-34.12 9.83-75.05 16.94-119.62 20.92V432a69.51 69.51 0 0 1-1.21 13q14.8 0.77 29.28 1.79c33.36 2.36 65.26 5.76 95 10.12 13.82 2 27.18 4.27 40 6.71q10.23 1.95 20 4.06 6.61 1.44 13 3 14.25 3.37 27 7.06c25.43 7.32 46.34 15.54 62.38 24.53 27.28 15.27 41.12 33.32 41.12 53.67q0 16.56-12.18 31Q924 601.35 924.07 618z m-686.25 46.28C310.57 681.5 407.62 691 511.09 691s200.51-9.49 273.27-26.71c82.78-19.61 99.71-41.53 99.71-46.33 0-1.23-1.11-3.58-4.15-6.73-5.77-6-18.5-14.82-43.79-24.3a433.34 433.34 0 0 0-51.77-15.3c-72.76-17.24-169.81-26.73-273.27-26.73s-200.52 9.49-273.27 26.72a433 433 0 0 0-51.82 15.3c-25.3 9.49-38 18.34-43.78 24.31-3 3.14-4.15 5.49-4.15 6.72 0.04 4.8 16.93 26.72 99.75 46.33z m468.24-527c56-16.13 68.57-33.66 68.57-38.53s-12.6-22.4-68.57-38.52c-51.79-14.92-121-23.14-194.92-23.14S368 45.309999999999945 316.22 60.23000000000002c-56 16.12-68.56 33.65-68.56 38.52s12.59 22.4 68.56 38.53c30.74 8.85 67.62 15.35 108 19.16v-7.63a70.14 70.14 0 0 1 70-70.06h33.23a70.13 70.13 0 0 1 70.05 70.06v7.69c40.59-3.81 77.68-10.32 108.56-19.22z m-148.55 22v-10.5a30.09 30.09 0 0 0-30.05-30.06h-33.23a30.09 30.09 0 0 0-30 30.06V432a29.87 29.87 0 0 0 2.25 11.41q22.09-0.57 44.66-0.58 7.26 0 14.49 0.06 14.94 0.12 29.67 0.52a29.7 29.7 0 0 0 2.21-11.41v-272.69z m326.56 396.6c0-4.8-16.93-26.73-99.71-46.33q-8.17-1.93-16.74-3.74c-14.86-3.13-30.58-6-47.05-8.47-44.27-6.77-93.87-11.29-146.24-13.31-20.7-0.8-41.83-1.2-63.24-1.2-21.56 0-42.85 0.41-63.69 1.23q-16 0.61-31.6 1.54c-15.78 0.94-31.25 2.11-46.32 3.51-32.26 3-62.74 7-90.68 12q-12.47 2.22-24.24 4.7-8.56 1.8-16.74 3.74c-82.79 19.6-99.71 41.53-99.71 46.33v9l1.11-0.63q1.48-0.84 3-1.65c21.18-11.32 50.2-21.38 86.35-29.94 75.69-17.92 176-27.79 282.49-27.79s206.79 9.87 282.48 27.79c36.15 8.56 65.17 18.62 86.35 29.94q1.55 0.81 3 1.65l1.12 0.64z"  horiz-adv-x="1024" />

    
    <glyph glyph-name="top-s" unicode="&#58922;" d="M164.1472 164.96640000000002h695.808c40.1408 0 60.3136 48.5376 31.8464 77.0048L543.8464 589.8240000000001c-17.6128 17.6128-46.1824 17.6128-63.7952 0L132.1984 241.97119999999995c-28.3648-28.4672-8.2944-77.0048 31.9488-77.0048z"  horiz-adv-x="1024" />

    
    <glyph glyph-name="xin" unicode="&#58994;" d="M690.2 740.4c-69.3 0-134.55-31.05-178.2-81.45-43.65 50.4-108.9 81.45-178.2 81.45C210.95 740.4 116 647.25 116 526.65c0-147.6 134.55-265.95 338.4-448.65l57.6-50.4 57.6 50.4c203.85 182.7 338.4 301.05 338.4 448.65 0 120.6-94.95 213.75-217.8 213.75z"  horiz-adv-x="1024" />

    
    <glyph glyph-name="banquan" unicode="&#58996;" d="M512.8 830.4c-273.2 0-488.7-244.1-440.4-526.5 31.5-184.5 176.7-329.6 361.1-361.1C715.9-105.5 960 110 960 383.2c0 247.3-201.7 447.2-447.2 447.2z m110.5-665.6c-3.6-0.6-7.4-0.8-11.5-0.8h-86.3c-127.4 0-228 104.2-221 231.4 6.3 115.3 102 207 218.9 207h42l43.5 0.7c4.2 0 8.1-0.3 11.8-0.9 26.2-4.1 39-22.1 29-43.7s-39.2-39.3-69.5-43.9c-4.2-0.6-8.5-1-12.7-1.1l-59.9 0.2c-66-7.6-115.7-62.3-115.7-130.6 0-71.9 59.6-131.5 131.5-131.5h47.9c4.1-0.1 8.3-0.4 12.4-1.1 29.6-4.4 58.3-21.8 68-43 9.8-21-2.7-38.7-28.4-42.7z"  horiz-adv-x="1024" />

    
    <glyph glyph-name="bi" unicode="&#58918;" d="M512-111.36997598000005c-278.04685997 0-499.73286893 225.44339968-499.73286893 499.73286893 0 278.04685997 225.44339968 499.73286893 499.73286893 499.73287002 278.04685997 0 499.73286893-225.44339968 499.73286893-499.73287002 0-278.04685997-221.68601006-499.73286893-499.73286893-499.73286893z m0 961.89183827C256.49747999 850.52186229 49.84103065 643.8654129500001 49.84103065 388.36289295S256.49747999-73.79607639000005 512-73.79607639000005s462.15896935 206.65644934 462.15896935 462.15896934S767.50252001 850.52186229 512 850.52186229zM583.39040953 542.4158831l-289.31902886-293.07641959-26.30173069-101.44952985 108.96431021 18.78695034 289.31902996 293.07641959zM613.44952985 576.2323930499999l90.17735987-90.17735987 37.57389959 37.57389958c22.54433996 22.54433996 22.54433996 60.11823955 0 86.41997025-22.54433996 22.54433996-60.11823955 22.54433996-82.66257951 3.75738962l-45.08867995-37.57389958z"  horiz-adv-x="1024" />

    
    <glyph glyph-name="huidaodingbu1" unicode="&#59204;" d="M746.955913 484.725508c23.370607 22.527337 58.426517 39.452957 93.36196 39.452957 35.05591 0 70.051587-11.263669 93.36196-39.452957l612.815858-591.553425c29.153025-28.189289 69.991353-28.189289 93.36196 0 11.685303 11.263669 17.467722 28.129055 17.467722 45.054675 0 16.865386-5.782418 33.791006-17.467722 45.054675L1015.416723 591.820711c-46.68098 45.054675-105.047263 67.642246-175.038616 67.642246-64.208935 0-128.41787-22.587571-175.098851-67.642246L40.838328-11.056616c-11.685303-11.263669-17.467722-28.189289-17.467721-45.054675 0-16.92562 5.782418-33.85124 17.467721-50.716626 29.213258-28.189289 70.051587-28.189289 93.36196 0l612.755625 591.493192zM1616.487044 896H70.051587C29.153025 896 0 867.810711 0 828.417988c0-39.452957 29.153025-62.040528 70.051587-62.040529h1546.435457c35.05591 0 70.051587 28.189289 70.051587 67.642246S1651.542955 896 1616.487044 896z"  horiz-adv-x="1686" />

    
    <glyph glyph-name="shaohouzaikanx" unicode="&#58977;" d="M744.145455 410.763636L699.810909 451.723636a18.036364 18.036364 0 0 1-24.482909-26.530909l77.847273-71.866182c7.447273-6.865455 19.083636-6.283636 25.786182 1.349819l70.074181 79.825454a18.036364 18.036364 0 0 1-27.112727 23.808l-41.541818-47.313454c-13.637818 151.575273-141.009455 270.336-296.098909 270.336-164.212364 0-297.332364-133.12-297.332364-297.309091 0-164.212364 133.12-297.309091 297.332364-297.309091 115.432727 0 218.926545 66.397091 268.078545 168.587636a18.036364 18.036364 0 1 1-32.535272 15.639273 261.213091 261.213091 0 0 0-235.543273-148.154182c-144.290909 0-261.236364 116.968727-261.236364 261.236364 0 144.290909 116.945455 261.236364 261.236364 261.236363 135.214545 0 246.458182-102.772364 259.863273-234.472727z m-194.46691-22.341818c3.258182-2.048 3.258182-6.795636 0-8.843636l-93.090909-58.158546a5.236364 5.236364 0 0 0-8.005818 4.421819V442.181818c0 4.096 4.514909 6.586182 8.005818 4.421818l93.090909-58.158545z m-73.960727-97.605818l93.090909 58.158545a41.309091 41.309091 0 0 1 0 70.05091l-93.090909 58.181818c-27.531636 17.175273-63.208727-2.606545-63.208727-35.048728V325.818182c0-32.442182 35.677091-52.224 63.208727-35.025455z"  horiz-adv-x="1024" />

    
    <glyph glyph-name="below-s" unicode="&#58885;" d="M859.8528 603.0336H164.1472c-40.1408 0-60.3136-48.5376-31.8464-77.0048L480.1536 178.17600000000004c17.6128-17.6128 46.1824-17.6128 63.7952 0l347.8528 347.8528c28.3648 28.4672 8.2944 77.0048-31.9488 77.0048z"  horiz-adv-x="1024" />

    
    <glyph glyph-name="wenti_huaban" unicode="&#58983;" d="M512 811.264A427.264 427.264 0 1 1 939.264 384 427.776 427.776 0 0 1 512 811.264zM509.8496 189.44a28.3136 28.3136 0 1 0 28.3648 28.3136 28.3136 28.3136 0 0 0-28.3648-28.3136z m107.52 213.9648c-12.9024-29.6448-35.84-43.3664-54.0672-54.3744-22.7328-13.6192-32.1024-19.2512-28.6208-50.176a28.3136 28.3136 0 0 0-24.9856-31.3344h-3.1744a28.3648 28.3648 0 0 0-28.16 25.1904c-7.5776 67.1232 30.72 89.9584 55.7568 105.1136 15.872 9.5232 25.9072 15.9744 31.232 28.3136 11.264 26.0608 10.5472 57.344-1.7408 76.0832-8.96 13.6704-23.7056 20.48-45.056 20.48s-37.376-5.7344-48.2816-17.408c-21.8624-24.0128-19.3536-63.8976-19.3024-64.3072a28.3648 28.3648 0 0 0-56.32-4.352c-0.512 6.6048-3.9936 65.4336 33.8432 106.3424 21.9136 23.7568 52.224 35.84 90.0608 35.84 40.1408 0 73.0112-16.2816 92.416-46.08 22.6816-34.7136 25.1904-85.6064 6.1952-129.536z"  horiz-adv-x="1024" />

    
    <glyph glyph-name="guanzhu1" unicode="&#58890;" d="M498.176 694.784l23.552-23.04 23.552 23.04c47.104 45.056 106.496 67.072 171.52 67.072 138.24 0 245.76-120.32 245.76-257.024 0-19.968-4.096-40.96-11.264-62.464 0 0-8.704-24.576-10.24-30.208-10.24-50.176 50.176-39.936 59.904-10.24 10.24 30.208 19.968 74.752 19.968 102.4 0 174.592-128.512 317.44-304.64 317.44-72.704 0-141.824-24.064-198.144-68.608-56.32 44.544-125.44 68.608-198.144 68.608-175.616 0-318.464-141.312-318.464-315.904 0-222.208 366.592-480.768 478.208-553.984 1.536-1.024 12.8-6.144 18.944-6.144 18.432 0 32.256-3.584 41.984 26.112 0 30.208-20.48 34.304-30.208 39.936-229.888 139.776-450.048 359.936-450.048 494.08 0 136.704 121.856 256 260.096 256 67.072 0 130.56-21.504 177.664-67.072zM801.792 242.17600000000004l1.024 188.928-11.264 11.264h-37.376l-11.264-11.264-1.024-188.928h-189.952l-11.264-11.264v-37.376l11.264-11.264h189.952l1.024-188.928 11.264-11.264h37.376l11.264 11.264-1.024 188.928 188.416 1.024 11.264 11.264v37.376l-11.264 11.264-188.416-1.024z"  horiz-adv-x="1024" />

    
    <glyph glyph-name="weixin" unicode="&#58888;" d="M371.227 776.548c-187.548 0-341.168-127.837-341.168-290.157 0-93.698 51.116-170.614 136.491-230.205l-34.123-102.654 119.257 59.831c42.687-8.474 76.915-17.144 119.497-17.144 10.702 0 21.329 0.527 31.85 1.37-6.653 22.834-10.521 46.706-10.521 71.482 0 148.969 128.002 269.927 290.066 269.927 11.048 0 21.991-0.813 32.859-2.017-29.517 137.44-176.454 239.567-344.208 239.567z m-110.828-230.34c-25.558 0-51.372 17.129-51.372 42.702 0 25.679 25.814 42.567 51.372 42.567s42.597-16.904 42.597-42.567c-0.015-25.573-17.039-42.703-42.597-42.703z m238.77 0c-25.574 0-51.238 17.129-51.238 42.702 0 25.679 25.664 42.567 51.237 42.567 25.694 0 42.703-16.904 42.703-42.567 0-25.573-17.024-42.703-42.703-42.703zM993.971 273.15c0 136.31-136.49 247.484-289.78 247.484-162.32 0-290.172-111.174-290.172-247.484 0-136.612 127.852-247.56 290.172-247.56 33.972 0 68.215 8.55 102.353 17.114l93.593-51.237-25.663 85.27C942.945 128.079 993.97 196.204 993.97 273.15z m-383.87 42.627c-16.994 0-34.138 16.873-34.138 34.108 0 17.023 17.144 34.153 34.138 34.153 25.814 0 42.703-17.13 42.703-34.153 0-17.235-16.889-34.108-42.703-34.108z m187.668 0c-16.873 0-33.897 16.873-33.897 34.108 0 17.023 17.024 34.153 33.897 34.153 25.558 0 42.702-17.13 42.702-34.153 0-17.235-17.144-34.108-42.702-34.108z"  horiz-adv-x="1024" />

    
    <glyph glyph-name="zhihu" unicode="&#59251;" d="M183.940741 856.746667h655.17037c80.023704 0 145.066667-64.474074 145.635556-144.497778v-657.256296c-0.568889-80.023704-65.611852-144.687407-145.635556-144.497778H183.940741c-80.023704 0-145.066667 64.474074-145.635556 144.497778V712.248889c0.568889 80.023704 65.611852 144.687407 145.635556 144.497778z m0 0M262.826667 384.379259h102.589629c2.275556 34.322963 0 108.088889 0 160.237037h-50.062222c-14.032593-30.72-27.117037-55.751111-52.906667-65.801481-11.946667-5.30963-25.6-6.447407-38.305185-3.413334 11.377778-1.327407 50.251852 139.188148 69.214815 164.977778 13.084444 16.118519 32.426667 25.78963 53.096296 26.548148-3.792593-27.496296-11.377778-54.423704-22.755555-79.834074h189.819259v-42.666666h-102.968889c0-51.579259 1.896296-125.345185 0-160.237037h119.087408l-0.568889-43.045926-120.604445 0.568889c-1.137778-9.291852-2.085926-31.857778-3.223703-40.580741 0 0 63.146667-65.991111 96.711111-108.847408v-74.145185c-35.84 47.597037-110.364444 136.722963-110.364445 136.722963-44.942222-114.157037-107.70963-155.306667-107.709629-155.306666h-69.214815s136.722963 149.807407 147.152592 241.208888h-142.98074l43.994074 43.614815z m289.185185 205.558519h237.985185v-430.26963l-96.900741-0.379259-72.059259-59.164445-29.202963 59.543704h-39.822222V589.937778z m193.991111-41.339259h-149.807407v-338.29926h8.533333l25.6-53.096296 65.991111 53.096296h49.682963V548.598519z m0 0"  horiz-adv-x="1024" />

    
    <glyph glyph-name="jianyi" unicode="&#58985;" d="M511.488 864C246.592 864 32 648.96 32 384c0-264.96 214.592-480 479.488-480 265.472 0 480.512 215.04 480.512 480 0 264.96-215.04 480-480.512 480zM512 0c-212.16 0-384 171.84-384 384s171.84 384 384 384 384-171.84 384-384-171.84-384-384-384z m168 432c39.872 0 72 32.192 72 72S719.872 576 680 576 608 543.808 608 504s32.128-72 72-72z m-336 0c39.808 0 72 32.192 72 72S383.808 576 344 576 272 543.808 272 504 304.192 432 344 432zM512 120A263.808 263.808 0 0 1 757.248 288H266.688A263.808 263.808 0 0 1 512 120z"  horiz-adv-x="1024" />

    
    <glyph glyph-name="shouqi" unicode="&#59005;" d="M918.1 162.4c11.8 12.2 11.8 32.1 0 44.3L533.4 605.6c-11.8 12.2-30.9 12.2-42.8 0-11.8-12.2-11.8-32.1 0-44.3l384.8-398.9c11.8-12.3 30.9-12.3 42.7 0zM148.6 162.4l384.8 398.9c11.8 12.2 11.8 32.1 0 44.3-11.8 12.2-30.9 12.2-42.8 0L105.9 206.7c-11.8-12.2-11.8-32.1 0-44.3 11.8-12.3 30.9-12.3 42.7 0z"  horiz-adv-x="1024" />

    
    <glyph glyph-name="shandian" unicode="&#59241;" d="M542.184 482.156h171.574l-409.874-420.84L440.509 357.65H288l152.509 349.866H736z"  horiz-adv-x="1024" />

    
    <glyph glyph-name="fufei" unicode="&#58919;" d="M554.18 384m-394.66 0a394.66 394.66 0 1 1 789.32 0 394.66 394.66 0 1 1-789.32 0ZM489.82-30.66c-55.97 0-110.28 10.97-161.41 32.59-49.38 20.89-93.72 50.78-131.8 88.86s-67.97 82.42-88.86 131.8C86.13 273.72 75.16 328.03 75.16 384s10.97 110.28 32.59 161.41c20.89 49.38 50.78 93.72 88.86 131.8 38.07 38.07 82.42 67.97 131.8 88.86 51.13 21.63 105.44 32.59 161.41 32.59s110.28-10.97 161.41-32.59c49.38-20.89 93.72-50.78 131.8-88.86 38.07-38.08 67.97-82.42 88.86-131.8 21.63-51.13 32.59-105.44 32.59-161.41s-10.97-110.28-32.59-161.41c-20.89-49.38-50.78-93.72-88.86-131.8s-82.42-67.97-131.8-88.86c-51.13-21.62-105.44-32.59-161.41-32.59z m0 789.32c-50.59 0-99.65-9.9-145.83-29.43-44.61-18.87-84.68-45.89-119.1-80.3-34.41-34.42-61.43-74.48-80.3-119.1-19.53-46.18-29.43-95.24-29.43-145.83 0-50.59 9.9-99.65 29.43-145.83 18.87-44.61 45.89-84.68 80.3-119.1 34.41-34.41 74.48-61.43 119.1-80.3 46.18-19.53 95.24-29.43 145.83-29.43s99.65 9.9 145.83 29.43c44.61 18.87 84.68 45.89 119.1 80.3 34.41 34.42 61.43 74.48 80.3 119.1 19.53 46.18 29.43 95.24 29.43 145.83 0 50.59-9.9 99.65-29.43 145.83-18.87 44.61-45.89 84.68-80.3 119.1-34.41 34.41-74.48 61.43-119.1 80.3-46.18 19.52-95.24 29.43-145.83 29.43zM489.82 457.44c-5.3 0-10.39 2.11-14.14 5.86L367.16 571.82c-7.81 7.81-7.81 20.47 0 28.29 7.81 7.81 20.47 7.81 28.28 0l94.37-94.38 94.37 94.38c7.81 7.81 20.47 7.81 28.28 0s7.81-20.47 0-28.29L503.96 463.3a20.006 20.006 0 0 0-14.14-5.86zM631.65 427.67H347.99c-11.05 0-20 8.95-20 20s8.95 20 20 20h283.67c11.05 0 20-8.95 20-20s-8.96-20-20.01-20zM631.65 330.17H347.99c-11.05 0-20 8.95-20 20s8.95 20 20 20h283.67c11.05 0 20-8.95 20-20s-8.96-20-20.01-20zM489.82 162.04c-11.05 0-20 8.95-20 20V447.67c0 11.05 8.95 20 20 20s20-8.95 20-20v-265.63c0-11.05-8.95-20-20-20z"  horiz-adv-x="1024" />

    
    <glyph glyph-name="sandian" unicode="&#59023;" d="M0 384c0 59.733 46.933 106.667 106.667 106.667S213.333 443.733 213.333 384 166.4 277.333 106.667 277.333 0 324.267 0 384z m810.667 0c0 59.733 46.933 106.667 106.666 106.667S1024 443.733 1024 384s-46.933-106.667-106.667-106.667S810.667 324.267 810.667 384z m-405.334 0c0 59.733 46.934 106.667 106.667 106.667S618.667 443.733 618.667 384 571.733 277.333 512 277.333 405.333 324.267 405.333 384z"  horiz-adv-x="1024" />

    


  </font>
</defs>
</svg>
